# xmcd
#
# Track frame offsets:
#	150
#	12639
#	14457
#	30334
#	45319
#	49844
#	59717
#	75931
#	78896
#	89665
#	92886
#	105459
#	120524
#	137462
#	150554
#	157000
#	159050
#	169467
#	171502
#	180509
#	181970
#	203067
#	216601
#	219191
#	233764
#	254887
#	270282
#	274126
# Disc length: 3854 seconds
# Revision: 1
# Processed by: cddbd v1.5.2PL0 Copyright (c) Steve Scherf et al.
#
# Submitted via: libkcddb 0.31
#
DISCID=790f0c1c
DTITLE=Monroe Crossing - Live From Silver Dollar City
DYEAR=2007
DGENRE=Bluegrass
TTITLE0=Fox On the Run
TTITLE1=Welcome to Silver Dollar City
TTITLE2=Oh Lonesome Me
TTITLE3=Just Wondering Why
TTITLE4=Intro to The Children Are Cryin'
TTITLE5=The Children Are Cryin'
TTITLE6=Crazy
TTITLE7=Introducing Lisa and Mark
TTITLE8=Dueling Banjos
TTITLE9=Intro to I Love to Tell the Story
TTITLE10=I Love to Tell the Story
TTITLE11=Jolene
TTITLE12=Wayfaring Stranger
TTITLE13=20/20 Vision
TTITLE14=Introducing Art and Benji
TTITLE15=Intro to Scotland
TTITLE16=Scotland
TTITLE17=Introducing Matt
TTITLE18=Audience Poll
TTITLE19=Intro to Rocky Road Blues
TTITLE20=Rocky Road Blues
TTITLE21=The Rain
TTITLE22=Intro to The Atlanta Church
TTITLE23=The Atlanta  Church
TTITLE24=At Last
TTITLE25=Nail That Catfish to a Tree
TTITLE26=Thanks
TTITLE27=Sally Goodin/That's What I Like About the South
EXTD=
EXTT0=
EXTT1=
EXTT2=
EXTT3=
EXTT4=
EXTT5=
EXTT6=
EXTT7=
EXTT8=
EXTT9=
EXTT10=
EXTT11=
EXTT12=
EXTT13=
EXTT14=
EXTT15=
EXTT16=
EXTT17=
EXTT18=
EXTT19=
EXTT20=
EXTT21=
EXTT22=
EXTT23=
EXTT24=
EXTT25=
EXTT26=
EXTT27=
PLAYORDER=
